<?xml version="1.0" encoding="utf-8"?>
<!-- Generator: Adobe Illustrator 27.1.1, SVG Export Plug-In . SVG Version: 6.00 Build 0)  -->
<svg version="1.1" id="Layer_1" xmlns="http://www.w3.org/2000/svg" xmlns:xlink="http://www.w3.org/1999/xlink" x="0px" y="0px"
	 viewBox="0 0 56.3 56.3" style="enable-background:new 0 0 56.3 56.3;" xml:space="preserve">
<style type="text/css">
	.st0{fill:#EC439D;}
	.st1{fill:#FA5E00;}
	.st2{fill:#7D4DFF;}
</style>
<g>
	<path class="st0" d="M6,34.1H0v17.6c0,2.6,2.1,4.7,4.7,4.7h22.6L11.2,36.6C9.9,35,8,34.1,6,34.1L6,34.1z"/>
	<path class="st1" d="M11.2,20.7L28,0H4.7C2.1,0,0,2.1,0,4.7v18.5h6C8,23.1,9.9,22.2,11.2,20.7z"/>
	<path class="st2" d="M42.1,0L22.3,24.4c-2,2.5-2,6,0,8.5l19.1,23.5h10.3c2.6,0,4.7-2.1,4.7-4.7v-47c0-2.6-2.1-4.7-4.7-4.7L42.1,0
		L42.1,0z"/>
</g>
</svg>
