<svg xmlns="http://www.w3.org/2000/svg" id="Layer_1" viewBox="95.37 119.64 307.34 56.32"><path d="m101.346,153.717h-5.972v17.567c0,2.581,2.093,4.674,4.674,4.674h22.575l-16.072-19.765c-1.274-1.566-3.185-2.476-5.204-2.476Z" fill="oklch(0.216 0.006 56.043)" class="color1"/><path d="m106.55,140.292l16.794-20.652h-23.296c-2.581,0-4.674,2.093-4.674,4.674v18.454h5.972c2.019,0,3.93-.909,5.204-2.476Z" fill="oklch(0.398 0.07 227.392)" class="color2"/><path d="m137.456,119.64l-19.818,24.371c-2.004,2.465-2.004,5.998,0,8.463l19.096,23.483h10.283c2.581,0,4.674-2.093,4.674-4.674v-46.97c0-2.581-2.093-4.674-4.674-4.674h-9.561Z" fill="oklch(0.398 0.07 227.392)" class="color3"/><g><path d="m176.128,165.407c-.588-.543-.882-1.322-.882-2.339v-31.38c0-1.017.294-1.787.882-2.313.587-.525,1.336-.788,2.243-.788s1.664.263,2.269.788c.605.526.908,1.297.908,2.313v31.38c0,1.017-.303,1.796-.908,2.339s-1.361.814-2.269.814-1.656-.271-2.243-.814Z" fill="#000" class="color0"/><path d="m192.664,164.697c-1.899-1.086-3.37-2.646-4.411-4.678-1.042-2.032-1.563-4.397-1.563-7.097s.521-5.054,1.563-7.069c1.042-2.015,2.512-3.565,4.411-4.651,1.898-1.086,4.109-1.63,6.629-1.63s4.73.544,6.629,1.63c1.898,1.086,3.36,2.637,4.386,4.651,1.025,2.016,1.538,4.372,1.538,7.069s-.513,5.064-1.538,7.097c-1.025,2.032-2.487,3.592-4.386,4.678-1.899,1.087-4.109,1.63-6.629,1.63s-4.731-.543-6.629-1.63Zm11.268-5.571c1.075-1.401,1.613-3.47,1.613-6.203,0-2.697-.538-4.757-1.613-6.176-1.076-1.419-2.622-2.129-4.638-2.129s-3.571.71-4.663,2.129c-1.093,1.419-1.639,3.479-1.639,6.176,0,2.733.537,4.802,1.613,6.203,1.075,1.401,2.622,2.103,4.638,2.103,2.049,0,3.612-.701,4.688-2.103Z" fill="#000" class="color0"/><path d="m232.868,140.256c.504.456.756,1.139.756,2.05,0,.946-.219,1.647-.655,2.103-.437.456-1.228.754-2.37.894l-1.512.157c-1.983.211-3.437.912-4.361,2.103-.925,1.192-1.386,2.681-1.386,4.468v11.039c0,1.017-.303,1.796-.908,2.339s-1.361.814-2.269.814-1.656-.271-2.243-.814c-.588-.543-.882-1.322-.882-2.339v-20.342c0-.981.294-1.735.882-2.261.587-.525,1.318-.788,2.193-.788s1.58.255,2.117.762c.538.509.807,1.235.807,2.182v2.103c.638-1.542,1.588-2.733,2.849-3.574s2.663-1.314,4.209-1.419l.706-.053c.874-.07,1.563.123,2.067.578Z" fill="#000" class="color0"/><path d="m256.739,159.546c.353.456.529,1.069.529,1.84,0,1.087-.623,1.997-1.865,2.733-1.143.666-2.438,1.201-3.882,1.604-1.446.402-2.823.604-4.134.604-3.966,0-7.108-1.191-9.427-3.574-2.319-2.383-3.479-5.642-3.479-9.777,0-2.628.504-4.958,1.513-6.99s2.428-3.609,4.26-4.73c1.832-1.121,3.907-1.683,6.226-1.683,2.218,0,4.15.509,5.797,1.524,1.646,1.017,2.924,2.453,3.832,4.311s1.361,4.047,1.361,6.57c0,1.507-.639,2.26-1.916,2.26h-14.872c.202,2.418.857,4.197,1.966,5.335,1.109,1.14,2.723,1.708,4.84,1.708,1.075,0,2.024-.139,2.848-.42.823-.28,1.756-.665,2.798-1.156,1.008-.561,1.748-.841,2.218-.841.571,0,1.034.228,1.387.683Zm-14.217-13.666c-1.025,1.122-1.638,2.733-1.84,4.836h11.393c-.067-2.137-.572-3.759-1.512-4.862-.941-1.104-2.252-1.655-3.932-1.655-1.714,0-3.084.561-4.109,1.682Z" fill="#000" class="color0"/><path d="m298.078,142.069c1.429,1.665,2.143,4.354,2.143,8.068v12.931c0,1.017-.294,1.796-.882,2.339-.589.543-1.354.814-2.294.814-.907,0-1.655-.271-2.243-.814-.589-.543-.883-1.322-.883-2.339v-12.931c0-1.927-.327-3.303-.982-4.126s-1.656-1.235-3-1.235c-1.646,0-2.958.587-3.932,1.761-.976,1.174-1.462,2.777-1.462,4.81v11.722c0,1.017-.295,1.796-.883,2.339s-1.336.814-2.243.814-1.664-.271-2.269-.814c-.605-.543-.907-1.322-.907-2.339v-12.931c0-1.927-.328-3.303-.983-4.126s-1.655-1.235-3-1.235c-1.646,0-2.949.587-3.906,1.761-.958,1.174-1.438,2.777-1.438,4.81v11.722c0,1.017-.302,1.796-.907,2.339-.604.543-1.361.814-2.269.814s-1.655-.271-2.243-.814c-.589-.543-.882-1.322-.882-2.339v-20.342c0-.981.302-1.735.907-2.261.604-.525,1.361-.788,2.269-.788.873,0,1.588.255,2.143.762.555.509.832,1.235.832,2.182v1.262c.772-1.401,1.806-2.471,3.1-3.207,1.294-.735,2.781-1.104,4.462-1.104,3.696,0,6.167,1.612,7.411,4.836.738-1.472,1.831-2.646,3.276-3.521,1.444-.876,3.075-1.314,4.891-1.314,2.688,0,4.746.833,6.175,2.497Z" fill="#000" class="color0"/><path d="m307.505,165.407c-.589-.543-.882-1.322-.882-2.339v-31.38c0-1.017.293-1.787.882-2.313.588-.525,1.336-.788,2.243-.788s1.664.263,2.269.788c.605.526.907,1.297.907,2.313v31.38c0,1.017-.302,1.796-.907,2.339-.604.543-1.361.814-2.269.814s-1.655-.271-2.243-.814Z" fill="#000" class="color0"/><path d="m324.041,164.697c-1.899-1.086-3.37-2.646-4.411-4.678-1.042-2.032-1.562-4.397-1.562-7.097s.521-5.054,1.562-7.069c1.041-2.015,2.512-3.565,4.411-4.651,1.898-1.086,4.108-1.63,6.629-1.63s4.73.544,6.63,1.63c1.898,1.086,3.36,2.637,4.386,4.651,1.025,2.016,1.538,4.372,1.538,7.069s-.513,5.064-1.538,7.097-2.487,3.592-4.386,4.678c-1.899,1.087-4.108,1.63-6.63,1.63s-4.73-.543-6.629-1.63Zm11.268-5.571c1.075-1.401,1.613-3.47,1.613-6.203,0-2.697-.538-4.757-1.613-6.176-1.076-1.419-2.622-2.129-4.639-2.129s-3.571.71-4.663,2.129-1.638,3.479-1.638,6.176c0,2.733.537,4.802,1.613,6.203,1.075,1.401,2.621,2.103,4.638,2.103,2.05,0,3.612-.701,4.688-2.103Z" fill="#000" class="color0"/><path d="m371.556,140.519c.57.561.856,1.314.856,2.26v20.763c0,4.029-1.076,7.078-3.227,9.146-2.151,2.067-5.327,3.102-9.528,3.102-3.663,0-6.722-.719-9.175-2.155-1.244-.771-1.865-1.7-1.865-2.786,0-.771.177-1.384.529-1.839.353-.456.814-.684,1.387-.684.302,0,.672.079,1.108.236.437.158.891.342,1.361.552,1.21.526,2.294.929,3.252,1.209s2.059.421,3.302.421c4.402,0,6.604-2.243,6.604-6.729v-3.363c-.74,1.437-1.815,2.549-3.227,3.337-1.411.789-3.024,1.183-4.84,1.183-2.151,0-4.059-.533-5.722-1.603-1.664-1.068-2.967-2.566-3.907-4.494-.941-1.927-1.411-4.152-1.411-6.676s.461-4.757,1.386-6.701c.924-1.945,2.227-3.451,3.907-4.521,1.681-1.068,3.596-1.604,5.747-1.604,1.815,0,3.429.395,4.84,1.183,1.411.789,2.486,1.901,3.227,3.338v-1.366c0-.911.285-1.647.856-2.208s1.328-.841,2.269-.841,1.697.28,2.27.841Zm-7.084,17.503c1.126-1.366,1.689-3.24,1.689-5.624,0-2.418-.563-4.31-1.689-5.677-1.126-1.366-2.696-2.05-4.713-2.05-1.983,0-3.547.684-4.688,2.05-1.144,1.367-1.714,3.259-1.714,5.677,0,2.384.57,4.258,1.714,5.624,1.142,1.367,2.705,2.051,4.688,2.051,2.017,0,3.587-.684,4.713-2.051Z" fill="#000" class="color0"/><path d="m383.529,164.697c-1.899-1.086-3.37-2.646-4.411-4.678-1.042-2.032-1.562-4.397-1.562-7.097s.521-5.054,1.562-7.069c1.041-2.015,2.512-3.565,4.411-4.651,1.898-1.086,4.108-1.63,6.629-1.63s4.73.544,6.63,1.63c1.898,1.086,3.36,2.637,4.386,4.651,1.025,2.016,1.538,4.372,1.538,7.069s-.513,5.064-1.538,7.097-2.487,3.592-4.386,4.678c-1.899,1.087-4.108,1.63-6.63,1.63s-4.73-.543-6.629-1.63Zm11.268-5.571c1.075-1.401,1.613-3.47,1.613-6.203,0-2.697-.538-4.757-1.613-6.176-1.076-1.419-2.622-2.129-4.639-2.129s-3.571.71-4.663,2.129-1.638,3.479-1.638,6.176c0,2.733.537,4.802,1.613,6.203,1.075,1.401,2.621,2.103,4.638,2.103,2.05,0,3.612-.701,4.688-2.103Z" fill="#000" class="color0"/></g></svg>